<svg width="19" height="18" viewBox="0 0 19 18" fill="none" xmlns="http://www.w3.org/2000/svg">
<g id="Group 22">
<path id="Vector" d="M9.412 11.4636C10.0813 11.4636 10.7232 11.1978 11.1965 10.7245C11.6697 10.2512 11.9356 9.60934 11.9356 8.94004C11.9356 8.27074 11.6697 7.62885 11.1965 7.15559C10.7232 6.68232 10.0813 6.41644 9.412 6.41644C8.7427 6.41644 8.10081 6.68232 7.62754 7.15559C7.15428 7.62885 6.8884 8.27074 6.8884 8.94004C6.8884 9.60934 7.15428 10.2512 7.62754 10.7245C8.10081 11.1978 8.7427 11.4636 9.412 11.4636Z" stroke="white" stroke-width="1.5" stroke-miterlimit="10" stroke-linecap="round" stroke-linejoin="round"/>
<path id="Vector_2" d="M1 9.68026V8.19974C1 7.3249 1.71502 6.60147 2.59828 6.60147C4.12085 6.60147 4.74334 5.52473 3.97785 4.20405C3.54042 3.44697 3.80119 2.46276 4.56669 2.02534L6.02196 1.19255C6.68651 0.797188 7.54453 1.03272 7.9399 1.69727L8.03243 1.8571C8.78951 3.17778 10.0345 3.17778 10.8 1.8571L10.8925 1.69727C11.2879 1.03272 12.1459 0.797188 12.8104 1.19255L14.2657 2.02534C15.0312 2.46276 15.292 3.44697 14.8546 4.20405C14.0891 5.52473 14.7116 6.60147 16.2341 6.60147C17.109 6.60147 17.8324 7.31648 17.8324 8.19974V9.68026C17.8324 10.5551 17.1174 11.2785 16.2341 11.2785C14.7116 11.2785 14.0891 12.3553 14.8546 13.676C15.292 14.4414 15.0312 15.4172 14.2657 15.8547L12.8104 16.6874C12.1459 17.0828 11.2879 16.8473 10.8925 16.1827L10.8 16.0229C10.0429 14.7022 8.79792 14.7022 8.03243 16.0229L7.9399 16.1827C7.54453 16.8473 6.68651 17.0828 6.02196 16.6874L4.56669 15.8547C4.20001 15.6435 3.93207 15.2956 3.82167 14.8871C3.71128 14.4786 3.76745 14.0431 3.97785 13.676C4.74334 12.3553 4.12085 11.2785 2.59828 11.2785C1.71502 11.2785 1 10.5551 1 9.68026Z" stroke="white" stroke-width="1.5" stroke-miterlimit="10" stroke-linecap="round" stroke-linejoin="round"/>
</g>
</svg>
